<svg xmlns="http://www.w3.org/2000/svg" version="1.1" xmlns:xlink="http://www.w3.org/1999/xlink" xmlns:svgjs="http://svgjs.dev/svgjs" width="1500" height="443" viewBox="0 0 1500 443"><g transform="matrix(1,0,0,1,-0.9090909090911055,-0.6495069246730623)"><svg viewBox="0 0 396 117" data-background-color="#ffffff" preserveAspectRatio="xMidYMid meet" height="443" width="1500" xmlns="http://www.w3.org/2000/svg" xmlns:xlink="http://www.w3.org/1999/xlink"><g id="tight-bounds" transform="matrix(1,0,0,1,0.24000000000003752,0.1715402035818272)"><svg viewBox="0 0 395.5199999999999 116.65691959283633" height="116.65691959283633" width="395.5199999999999"><g><svg viewBox="0 0 672.0566137031518 198.22020213036626" height="116.65691959283633" width="395.5199999999999"><g transform="matrix(1,0,0,1,276.53661370315183,31.11239332879346)"><svg viewBox="0 0 395.52 135.99541547277934" height="135.99541547277934" width="395.52"><g id="textblocktransform"><svg viewBox="0 0 395.52 135.99541547277934" height="135.99541547277934" width="395.52" id="textblock"><g><svg viewBox="0 0 395.52 135.99541547277934" height="135.99541547277934" width="395.52"><g transform="matrix(1,0,0,1,0,0)"><svg width="395.52" viewBox="0.6 -35.5 104.69000000000001 36" height="135.99541547277934" data-palette-color="#e8772e"><path d="M6.35 0L6.35-30 0.6-30 0.6-35 17.6-35 17.6-30 11.85-30 11.85 0 6.35 0ZM20.25 0L20.25-35 35.25-35 35.25-30 25.75-30 25.75-20.75 33.3-20.75 33.3-15.75 25.75-15.75 25.75-5 35.25-5 35.25 0 20.25 0ZM45.65 0.5Q41.65 0.5 39.59-1.78 37.55-4.05 37.55-8.3L37.55-8.3 37.55-10.3 42.75-10.3 42.75-7.9Q42.75-4.5 45.59-4.5L45.59-4.5Q47-4.5 47.72-5.33 48.45-6.15 48.45-8L48.45-8Q48.45-10.2 47.45-11.88 46.45-13.55 43.75-15.9L43.75-15.9Q40.34-18.9 38.99-21.33 37.65-23.75 37.65-26.8L37.65-26.8Q37.65-30.95 39.74-33.23 41.84-35.5 45.84-35.5L45.84-35.5Q49.8-35.5 51.82-33.23 53.84-30.95 53.84-26.7L53.84-26.7 53.84-25.25 48.65-25.25 48.65-27.05Q48.65-28.85 47.95-29.68 47.25-30.5 45.9-30.5L45.9-30.5Q43.15-30.5 43.15-27.15L43.15-27.15Q43.15-25.25 44.17-23.6 45.2-21.95 47.9-19.6L47.9-19.6Q51.34-16.6 52.64-14.15 53.95-11.7 53.95-8.4L53.95-8.4Q53.95-4.1 51.82-1.8 49.7 0.5 45.65 0.5L45.65 0.5ZM61.39 0L61.39-30 55.64-30 55.64-35 72.64-35 72.64-30 66.89-30 66.89 0 61.39 0ZM75.29 0L75.29-35 80.79-35 80.79-5 89.84-5 89.84 0 75.29 0ZM93.14 0L93.14-14.9 86.49-35 92.34-35 96.09-22.15 96.19-22.15 99.94-35 105.29-35 98.64-14.9 98.64 0 93.14 0Z" opacity="1" transform="matrix(1,0,0,1,0,0)" fill="#e8772e" class="wordmark-text-0" data-fill-palette-color="primary" id="text-0"></path></svg></g></svg></g></svg></g></svg></g><g><svg viewBox="0 0 244.43135999999998 198.22020213036626" height="198.22020213036626" width="244.43135999999998"><g><svg xmlns="http://www.w3.org/2000/svg" xmlns:xlink="http://www.w3.org/1999/xlink" version="1.1" x="0" y="0" viewBox="23.666 28.645000000000003 52.667 42.71" enable-background="new 0 0 100 100" xml:space="preserve" height="198.22020213036626" width="244.43135999999998" class="icon-icon-0" data-fill-palette-color="accent" id="icon-0"><g fill="#e8772e" data-fill-palette-color="accent"><path d="M42.179 71.355L23.666 52.844l8.572-8.578 9.948 9.946 25.566-25.567 8.581 8.572L42.179 71.355zM26.777 52.844l15.401 15.4L73.22 37.217l-5.468-5.461L42.187 57.323l-9.948-9.946L26.777 52.844z" fill="#e8772e" data-fill-palette-color="accent"></path></g></svg></g></svg></g></svg></g><defs></defs></svg><rect width="395.5199999999999" height="116.65691959283633" fill="none" stroke="none" visibility="hidden"></rect></g></svg></g></svg>